inDegrees=yes
name=ik_S42_A09_T01
DataType=double
version=3
OpenSimVersion=4.3-2021-08-27-4bc7ad9
endheader
time	pelvis_tilt	pelvis_list	pelvis_rotation	pelvis_tx	pelvis_ty	pelvis_tz	hip_flexion_r	hip_adduction_r	hip_rotation_r	knee_angle_r	knee_angle_r_beta	ankle_angle_r	subtalar_angle_r	mtp_angle_r	hip_flexion_l	hip_adduction_l	hip_rotation_l	knee_angle_l	knee_angle_l_beta	ankle_angle_l	subtalar_angle_l	mtp_angle_l	lumbar_extension	lumbar_bending	lumbar_rotation	arm_flex_r	arm_add_r	arm_rot_r	elbow_flex_r	pro_sup_r	wrist_flex_r	wrist_dev_r	arm_flex_l	arm_add_l	arm_rot_l	elbow_flex_l	pro_sup_l	wrist_flex_l	wrist_dev_l
7.89999999999992	-11.13262893072697	-1.587754770003063	32.00367709580017	0	0.9399999999999999	0	36.98532841810547	-12.85079558964618	-10.76159801624488	49.54404709218471	0.8647067465217457	0	0	0	36.98532841810547	-12.85079558964618	-10.76159801624488	49.54404709218471	0.8647067465217457	0	0	0	-8.800036695566558	-2.574529801635084	-3.935062322370158	70.74906860263664	-7.310166559352983	13.29208858115087	53.01708657820563	92.87903129230979	0	0	69.74990664158821	-10.9907567743048	-10.66148079707891	29.51619902609397	96.75574522567449	0	0
7.919999999999919	-11.16152343078745	-1.587086081059512	31.80951798615243	0	0.9399999999999999	0	36.9880360772888	-12.84745646123817	-10.76102832914416	49.54527714584746	0.864728215008137	0	0	0	36.9880360772888	-12.84745646123817	-10.76102832914416	49.54527714584746	0.864728215008137	0	0	0	-8.823899917934142	-2.566854278658959	-3.871543785443095	70.73924586540937	-7.229881532231505	13.34625449741423	53.03464021044099	92.78352576956529	0	0	70.33111015472939	-10.95573771810217	-9.394541616968326	28.79099705913802	96.48085028405112	0	0
7.939999999999919	-11.18113646515984	-1.580646990707253	31.55153504912674	0	0.9399999999999999	0	36.99322847150756	-12.84104188913952	-10.75993436956186	49.54762949014147	0.8647692711612079	0	0	0	36.99322847150756	-12.84104188913952	-10.75993436956186	49.54762949014147	0.8647692711612079	0	0	0	-8.834361344415871	-2.580897796199741	-3.671461672657704	70.79460605176473	-7.186471626941636	13.40079202912067	53.01391169266114	92.69327748919167	0	0	71.53025914674724	-10.41814521971776	-7.356717206566033	26.93856145229262	96.49083244259124	0	0
7.959999999999918	-11.21295187888064	-1.579532591356501	31.38570684142787	0	0.9399999999999999	0	36.9985355939183	-12.8344922598176	-10.75881667717341	49.55003302662573	0.8648112207865501	0	0	0	36.9985355939183	-12.8344922598176	-10.75881667717341	49.55003302662573	0.8648112207865501	0	0	0	-8.8618648343288	-2.567705711127315	-3.619213037044877	70.7817480300904	-7.133067391069978	13.27447193107805	53.03476902392553	92.78469809654173	0	0	72.15116175752802	-10.26689294537969	-6.635147765215489	25.55340254751724	97.16054611628746	0	0
7.979999999999918	-11.24999816283696	-1.56397256330406	31.12872734907407	0	0.9399999999999999	0	37.00357664424956	-12.82829526467466	-10.75775740969369	49.55232144304481	0.8648511611877198	0	0	0	37.00357664424956	-12.82829526467466	-10.75775740969369	49.55232144304481	0.8648511611877198	0	0	0	-8.887376810510226	-2.546841192405597	-3.528025837832533	70.82121373318932	-7.034435271054774	13.28689718268434	53.04646688676325	92.75283575147436	0	0	72.74010942137647	-10.01022878138195	-6.108430143128509	23.20719456402474	99.1048506845213	0	0
7.999999999999917	-11.25801549396747	-1.564827030413097	30.987784067267	0	0.9399999999999999	0	37.00854310990862	-12.8221938688845	-10.75671398321947	49.55457461232608	0.8648904864102827	0	0	0	37.00854310990862	-12.8221938688845	-10.75671398321947	49.55457461232608	0.8648904864102827	0	0	0	-8.894136991393353	-2.555103734520931	-3.439114377648145	70.82529379130276	-6.983973345450886	13.21780069998312	53.04318468336828	92.69154928812858	0	0	73.28842274962395	-9.657514646724382	-5.596376635279221	21.75514653516668	100.112379934714	0	0
8.019999999999918	-11.28258494411952	-1.56156425407467	30.82459886502194	0	0.9399999999999999	0	37.01214879671538	-12.81777803589226	-10.75595782006712	49.5562135907163	0.864919091979561	0	0	0	37.01214879671538	-12.81777803589226	-10.75595782006712	49.5562135907163	0.864919091979561	0	0	0	-8.913705444747471	-2.546833005797531	-3.379047989494356	70.86647273811819	-6.907227632386656	13.22306393843569	53.03287391102764	92.72176074365576	0	0	73.79647850168379	-9.3964417889968	-5.209661406959452	20.32718069674777	101.1168117113797	0	0
8.039999999999917	-11.31087011321631	-1.549921129586899	30.67985656819047	0	0.9399999999999999	0	37.01613132373711	-12.81290507092391	-10.75512295793506	49.55802376756834	0.8649506855256726	0	0	0	37.01613132373711	-12.81290507092391	-10.75512295793506	49.55802376756834	0.8649506855256726	0	0	0	-8.931591183147599	-2.5295128501141	-3.319115620555634	70.88360777785368	-6.850073896516858	13.3297660720361	53.04321491324551	92.68833060278419	0	0	74.24447178091332	-9.08108308070914	-4.943818301556756	19.1108457176683	101.8444907820203	0	0
8.059999999999917	-11.33060612952865	-1.541613152137327	30.54572562640776	0	0.9399999999999999	0	37.02013100830261	-12.80803479984259	-10.75428695602996	49.55984825771517	0.8649825288859049	0	0	0	37.02013100830261	-12.80803479984259	-10.75428695602996	49.55984825771517	0.8649825288859049	0	0	0	-8.943768794161116	-2.518307549612514	-3.268549358170526	70.88150838309201	-6.771313084665431	13.48530134471318	53.0819203634554	92.60583199466467	0	0	74.63827581393336	-8.842278593755131	-4.880929398027537	18.09586740091851	102.3241782116185	0	0
8.079999999999917	-11.34650866203519	-1.530488191021275	30.4532343873978	0	0.9399999999999999	0	37.02341668110813	-12.80403819617147	-10.75360054746996	49.56134729346847	0.8650086919954052	0	0	0	37.02341668110813	-12.80403819617147	-10.75360054746996	49.56134729346847	0.8650086919954052	0	0	0	-8.951547527477333	-2.504133136307506	-3.235339262380724	70.85721180020583	-6.701902163800914	13.63183872199091	53.11282471926302	92.57741636176152	0	0	74.95617885411862	-8.640225772332249	-4.777671811773918	17.5273156632061	102.4145475034438	0	0
8.099999999999916	-11.36286054520436	-1.526429306667147	30.36111804502269	0	0.9399999999999999	0	37.02653096205516	-12.80027434675974	-10.75295254029711	49.56277560206613	0.8650336206831688	0	0	0	37.02653096205516	-12.80027434675974	-10.75295254029711	49.56277560206613	0.8650336206831688	0	0	0	-8.963312084876087	-2.49623385767217	-3.199983353088727	70.87303827954864	-6.625093329605633	13.75042675042659	53.11595798483144	92.55343094131614	0	0	75.23047829647021	-8.506712676107028	-4.703974193019844	16.81948086757784	102.6055698562343	0	0
8.119999999999916	-11.38618616434242	-1.532581704876067	30.27644068046109	0	0.9399999999999999	0	37.02911708893659	-12.79721099229806	-10.75242133564382	49.56398355427238	0.8650547034263747	0	0	0	37.02911708893659	-12.79721099229806	-10.75242133564382	49.56398355427238	0.8650547034263747	0	0	0	-8.985998294365389	-2.495503873855271	-3.154736315929849	70.90487645431233	-6.576419139468094	13.82055642439753	53.07737474034352	92.46833343151535	0	0	75.48376253534298	-8.427724621848574	-4.701378261062779	16.20557955485709	102.9610617722894	0	0
8.139999999999915	-11.41043140453911	-1.542732908648069	30.22874433742145	0	0.9399999999999999	0	37.03120888446126	-12.79473437041056	-10.75199169246357	49.56495982074849	0.8650717424907596	0	0	0	37.03120888446126	-12.79473437041056	-10.75199169246357	49.56495982074849	0.8650717424907596	0	0	0	-9.012031629809131	-2.49593605085309	-3.12104064955794	70.92694800089373	-6.549288790369459	13.81244037788053	53.0990344371447	92.39582158149352	0	0	75.66673351099418	-8.372432103637498	-4.686464018713743	15.73216476189175	103.3721367564349	0	0
8.159999999999915	-11.41785902426467	-1.534008078716371	30.21706136540483	0	0.9399999999999999	0	37.03413874116723	-12.79993108756633	-10.75221546856155	49.56692580036809	0.8651060553081487	0	0	0	37.03413874116723	-12.79993108756633	-10.75221546856155	49.56692580036809	0.8651060553081487	0	0	0	-9.014485413071737	-2.483778453235345	-3.106669259311474	70.93937711643437	-6.567974418229486	13.75668513381896	53.08166208508187	92.42476440775818	0	0	75.66995848307869	-8.348910564527436	-4.736999097706994	15.51718528563591	103.3399802907497	0	0
8.179999999999914	-11.4292658729609	-1.541342695413767	30.16939213978074	0	0.9399999999999999	0	37.07245733393987	-12.78045610348478	-10.74681184389725	49.58634064288421	0.8654449082338111	0	0	0	37.07245733393987	-12.78045610348478	-10.74681184389725	49.58634064288421	0.8654449082338111	0	0	0	-9.032744793720532	-2.469927639771642	-3.024645737270965	70.95566027060734	-6.613385235152975	13.77070145836754	53.16335312904852	92.44533618998018	0	0	75.76320135281533	-8.213402502800921	-4.628094151804375	15.41619450546813	102.8113614161979	0	0
8.199999999999914	-11.41913665812352	-1.557415949740529	30.20344686082586	0	0.9399999999999999	0	37.11204632648553	-12.75435954331345	-10.74068696164238	49.6060273620604	0.8657885063023512	0	0	0	37.11204632648553	-12.75435954331345	-10.74068696164238	49.6060273620604	0.8657885063023512	0	0	0	-9.038294189579824	-2.461690291795144	-3.018029663406057	70.97668201090814	-6.654359695939288	13.72067056347104	53.21318459346735	92.44061343627779	0	0	75.73883863226203	-8.180433108086108	-4.607477536423564	15.47500859936505	102.5154088047905	0	0
8.219999999999914	-11.43918823975704	-1.561159646885879	30.24344206391824	0	0.9399999999999999	0	37.11464744708634	-12.75121732520836	-10.74014673979247	49.6072169908438	0.865809269241498	0	0	0	37.11464744708634	-12.75121732520836	-10.74014673979247	49.6072169908438	0.865809269241498	0	0	0	-9.058190563883691	-2.449087016160131	-3.041410729249726	71.02434110547939	-6.635604989367392	13.77781139731969	53.13740615749006	92.49745052416012	0	0	75.99991175839676	-8.146980503697865	-4.881424442072233	15.10598230182325	102.7429918775428	0	0
8.239999999999913	-11.43984509179596	-1.569081655442539	30.29185507207799	0	0.9399999999999999	0	37.1168370983556	-12.74857201723425	-10.73969191449568	49.60821792121127	0.8658267387719936	1.858991992392506e-52	0	0	37.1168370983556	-12.74857201723425	-10.73969191449568	49.60821792121127	0.8658267387719936	1.858991992392506e-52	0	0	-9.063214756116933	-2.451712952207481	-3.056611865238857	71.02400573952387	-6.652467070550506	13.75498072677245	53.15477373881639	92.49401645058784	0	0	76.09483380585567	-8.185219284565184	-5.159767330274095	14.93829720825506	102.9991783691538	0	0
8.259999999999913	-11.44230595880576	-1.569898590177601	30.32036180084523	0	0.9399999999999999	0	37.11954453747617	-12.74529192788817	-10.73912842399747	49.60945136594214	0.8658482664436885	0	0	0	37.11954453747617	-12.74529192788817	-10.73912842399747	49.60945136594214	0.8658482664436885	0	0	0	-9.066418759226929	-2.446594081667742	-3.072916481579846	71.03723761785001	-6.661792836630813	13.83124140522036	53.1612347562971	92.4343654988224	0	0	76.12011833919374	-8.235331622926854	-5.418902579898933	14.80255347492442	103.1235278959197	0	0
8.279999999999912	-11.43767296318078	-1.58507674173649	30.3694636558849	0	0.9399999999999999	0	37.12041538891717	-12.74424705606126	-10.73894830315714	49.60985166607549	0.8658552529990118	0	0	0	37.12041538891717	-12.74424705606126	-10.73894830315714	49.60985166607549	0.8658552529990118	0	0	0	-9.069982997544738	-2.462242251722846	-3.069725423049063	71.03007147672481	-6.68080242364109	13.80920878823683	53.16631216870702	92.42083971041619	0	-1.077613842297402e-35	76.11626769606266	-8.275122303948262	-5.574478475626461	14.74614238809756	103.1278335728745	0	-1.077613842297402e-35
